<svg width="336" height="326" viewBox="0 0 336 326" fill="none" xmlns="http://www.w3.org/2000/svg">
<path d="M335.169 163C335.169 253.022 260.139 326 167.584 326C75.0301 326 0 253.022 0 163C0 72.9776 75.0301 0 167.584 0C260.139 0 335.169 72.9776 335.169 163Z" fill="#F2C94C"/>
<path d="M244.502 207.455C243.486 207.455 242.978 206.961 242.978 205.973V129.926C242.978 128.938 243.486 128.444 244.502 128.444H261.748C262.763 128.444 263.271 128.938 263.271 129.926V205.973C263.271 206.961 262.763 207.455 261.748 207.455H244.502ZM247.183 125.54C246.411 125.895 245.863 125.717 245.538 125.006L243.405 120.561C243.12 119.849 243.344 119.257 244.075 118.783L258.457 109.714C259.188 109.279 259.737 109.536 260.102 110.484L263.576 117.538C263.901 118.21 263.677 118.743 262.905 119.138L247.183 125.54Z" fill="#A73E3E"/>
<path d="M176.127 207.611C175.136 207.611 174.64 207.117 174.64 206.13V151.243C174.64 150.73 174.839 150.138 175.235 149.467C177.163 142.623 179.575 135.489 185.215 131.159C187.077 129.729 189.149 128.684 191.23 128.684H210.912C212.63 128.684 214.547 129.745 216.362 131.191C221.977 135.665 224.78 142.628 226.967 149.467C227.364 150.019 227.562 150.611 227.562 151.243V206.13C227.562 207.117 227.066 207.611 226.075 207.611H209.247C208.256 207.611 207.761 207.117 207.761 206.13V180.966H194.501V206.13C194.501 207.117 194.005 207.611 193.014 207.611H176.127ZM201.101 168.236C204.748 168.236 207.206 167.447 208.474 165.868C209.783 164.249 210.437 161.19 210.437 156.69C210.437 152.19 209.783 149.151 208.474 147.572C207.206 145.954 204.748 145.144 201.101 145.144C197.494 145.144 195.036 145.954 193.728 147.572C192.459 149.151 191.825 152.19 191.825 156.69C191.825 161.19 192.459 164.249 193.728 165.868C195.036 167.447 197.494 168.236 201.101 168.236Z" fill="#A73E3E"/>
<path d="M141.547 207.455C140.531 207.455 140.023 206.961 140.023 205.973V129.926C140.023 128.938 140.531 128.444 141.547 128.444H158.793C159.808 128.444 160.316 128.938 160.316 129.926V205.973C160.316 206.961 159.808 207.455 158.793 207.455H141.547Z" fill="#A73E3E"/>
<path d="M85.8184 207.455C84.8839 207.455 84.0714 207.119 83.3808 206.447L71.1928 194.592C70.5022 193.96 70.1568 193.17 70.1568 192.221V143.618C70.1568 142.709 70.5022 141.919 71.1928 141.247L83.3808 129.392C84.0714 128.76 84.8839 128.444 85.8184 128.444H109.768C110.743 128.444 111.555 128.76 112.205 129.392L124.393 141.247C125.084 141.919 125.429 142.709 125.429 143.618V192.221C125.429 193.17 125.084 193.96 124.393 194.592L112.205 206.447C111.555 207.119 110.743 207.455 109.768 207.455H85.8184ZM93.0092 191.629H102.577C104.283 191.629 105.136 190.522 105.136 188.309V147.589C105.136 145.337 104.283 144.211 102.577 144.211H93.0092C91.3436 144.211 90.5107 145.337 90.5107 147.589V188.309C90.5107 190.522 91.3436 191.629 93.0092 191.629ZM91.6076 125.54C90.8357 125.895 90.2873 125.717 89.9623 125.006L87.8294 120.561C87.545 119.849 87.7684 119.257 88.4997 118.783L102.881 109.714C103.613 109.279 104.161 109.536 104.527 110.484L108 117.538C108.325 118.21 108.102 118.743 107.33 119.138L91.6076 125.54Z" fill="#A73E3E"/>
</svg>
